<svg version="1.1" id="Layer_1" xmlns="http://www.w3.org/2000/svg" xmlns:xlink="http://www.w3.org/1999/xlink" x="0px" y="0px"
	 width="100%" viewBox="0 0 1024 336" enable-background="new 0 0 1024 336" xml:space="preserve">
<path fill="currentColor" opacity="1.000000" stroke="none" 
	d="
M795.962830,177.004303 
	C795.920593,190.991821 795.822083,204.480591 795.878845,217.968719 
	C795.892578,221.236511 794.874878,223.014740 791.354370,222.965866 
	C785.357971,222.882614 779.359192,222.884354 773.362366,222.944992 
	C769.865173,222.980362 768.749573,221.198669 768.813049,217.933472 
	C768.929504,211.938171 768.825806,205.938736 768.826233,199.941025 
	C768.829651,153.458679 768.832825,106.976326 768.844482,60.493980 
	C768.846436,52.744892 768.865295,52.742504 776.485413,52.729622 
	C780.983704,52.722019 785.494202,52.928322 789.976746,52.661182 
	C794.169983,52.411282 795.425842,54.123367 795.393799,58.176254 
	C795.240845,77.501060 795.318481,96.827705 795.320190,116.153694 
	C795.320435,119.305504 795.212280,122.474983 796.444763,125.523415 
	C798.423401,125.741768 799.415833,124.145416 800.729675,123.284431 
	C818.759644,111.469276 844.680603,114.806305 857.456421,130.797028 
	C863.624878,138.517670 866.027954,147.742905 866.160583,157.381485 
	C866.437988,177.536743 866.204346,197.698563 866.335449,217.856689 
	C866.359192,221.514114 864.990295,223.042923 861.404724,222.979477 
	C856.075012,222.885178 850.741089,222.837555 845.412292,222.942291 
	C841.339905,223.022339 839.889282,221.195709 839.918152,217.177261 
	C840.041565,200.018066 839.960144,182.857391 839.948547,165.697250 
	C839.947327,163.864944 839.945068,162.031769 839.892029,160.200500 
	C839.330078,140.814713 822.135010,136.682602 809.299194,143.374207 
	C800.988464,147.706741 797.322449,155.138412 796.315674,164.026093 
	C795.848938,168.146240 796.059937,172.343185 795.962830,177.004303 
z"/>
<path fill="currentColor" opacity="1.000000" stroke="none" 
	d="
M579.594604,119.168167 
	C618.709106,132.125824 631.100342,178.334900 603.774597,208.711365 
	C595.463440,217.950455 584.631348,223.176254 572.351746,224.733749 
	C552.668457,227.230301 534.259766,224.140732 519.704712,209.385971 
	C504.694275,194.169495 500.792297,175.675293 506.610718,155.431564 
	C512.665710,134.364792 527.608826,122.391228 548.565674,117.754288 
	C558.784485,115.493248 569.099915,116.137444 579.594604,119.168167 
M571.932556,142.465225 
	C550.838623,135.422150 530.061646,150.091415 530.379700,171.802872 
	C530.595154,186.505768 542.201782,199.910370 556.245178,201.674973 
	C572.980347,203.777802 587.067017,194.547989 591.184387,178.782227 
	C595.125366,163.692261 587.373047,148.627777 571.932556,142.465225 
z"/>
<path fill="currentColor" opacity="1.000000" stroke="none" 
	d="
M702.667847,199.790039 
	C708.803589,197.311295 713.224548,193.335678 716.339661,188.032761 
	C717.794922,185.555573 719.560059,184.584305 722.383911,184.642563 
	C729.183105,184.782791 735.987061,184.687988 742.687256,184.687988 
	C745.582214,200.464569 722.977783,221.916412 700.793091,225.039780 
	C667.520752,229.724167 637.545776,208.187820 634.592407,178.304031 
	C631.095764,142.923798 656.560669,118.439705 687.454407,116.708786 
	C719.803894,114.896317 741.544006,137.262054 743.207153,157.267365 
	C735.406616,157.267365 727.642212,157.289276 719.878174,157.252441 
	C717.858032,157.242859 717.246521,155.448944 716.305420,154.118958 
	C708.215088,142.685699 695.443604,138.020630 682.629700,141.821335 
	C669.786804,145.630630 660.439758,157.202759 660.581543,170.785446 
	C660.825562,194.168289 682.712219,207.266144 702.667847,199.790039 
z"/>
<path fill="currentColor" opacity="1.000000" stroke="none" 
	d="
M294.731567,245.000046 
	C294.723480,224.509155 294.845276,204.516785 294.613678,184.528503 
	C294.559143,179.820175 295.953857,177.788254 300.769257,178.007751 
	C305.756592,178.235092 310.762817,178.104874 315.759705,178.044769 
	C318.705841,178.009338 320.465393,178.801514 321.613617,182.049225 
	C326.247864,195.156662 337.013672,202.688446 350.391144,202.761292 
	C364.490509,202.838058 374.815277,195.809677 379.797241,182.376328 
	C380.901337,179.399307 382.465454,178.080627 385.575073,178.128738 
	C390.904175,178.211182 396.237640,178.189240 401.566193,178.071732 
	C405.632721,177.982056 406.700989,179.677704 405.949738,183.634415 
	C397.707794,227.043915 350.156250,236.162643 324.150574,216.093689 
	C323.281738,215.423203 322.615814,214.296890 321.038849,214.421921 
	C321.038849,233.049866 321.026306,251.659943 321.043915,270.269989 
	C321.053375,280.230133 321.076813,280.234131 310.901855,280.234589 
	C307.070312,280.234772 303.235565,280.109375 299.408173,280.229218 
	C296.008392,280.335632 294.642242,278.927643 294.685638,275.485901 
	C294.811584,265.492004 294.731567,255.495529 294.731567,245.000046 
z"/>
<path fill="currentColor" opacity="1.000000" stroke="none" 
	d="
M265.300415,160.913391 
	C265.206055,168.287064 265.206055,168.289078 258.406189,168.294556 
	C254.075363,168.298050 249.731155,168.082855 245.417557,168.355331 
	C241.333115,168.613327 239.285812,167.541458 238.198502,163.066879 
	C235.073990,150.208633 224.210144,141.744431 210.243042,140.402740 
	C198.801956,139.303711 185.922424,146.989014 180.668777,158.057556 
	C180.312012,158.809219 179.960861,159.568848 179.682343,160.351532 
	C176.853775,168.300690 176.858170,168.301926 168.644104,168.295471 
	C164.479858,168.292191 160.314026,168.218079 156.151901,168.310883 
	C152.924408,168.382828 151.527527,167.069916 152.029770,163.777481 
	C154.964630,144.537735 164.126816,129.521957 182.383148,121.602951 
	C201.362900,113.370155 219.436890,115.969398 236.087601,128.274673 
	C236.986603,128.939041 237.623795,130.087463 239.017426,129.891708 
	C239.233688,129.662094 239.612305,129.452042 239.645157,129.197403 
	C240.830780,120.009117 240.826324,120.008545 250.361343,119.969467 
	C265.316010,119.908165 265.311951,119.908165 265.298889,134.939270 
	C265.291504,143.434296 265.300171,151.929337 265.300415,160.913391 
z"/>
<path fill="currentColor" opacity="1.000000" stroke="none" 
	d="
M319.892273,120.865067 
	C320.633118,123.245186 321.069885,125.336197 321.518951,127.485970 
	C323.502441,127.847450 324.482025,126.206825 325.771820,125.344772 
	C353.875763,106.560837 401.557678,119.710083 406.525024,163.323944 
	C406.960175,167.144516 405.895355,168.488693 402.099457,168.346161 
	C396.778412,168.146332 391.442627,168.188690 386.117310,168.310196 
	C383.005707,168.381210 381.366821,167.487869 380.658966,164.069138 
	C377.649658,149.535400 366.296143,140.342148 351.595978,140.130356 
	C336.481903,139.912613 324.711487,148.746384 321.322296,163.229462 
	C320.452118,166.947968 318.994781,168.633682 314.985657,168.385269 
	C309.843475,168.066681 304.663452,168.188995 299.506378,168.343658 
	C296.218750,168.442245 294.630432,167.438309 294.665802,163.839691 
	C294.795166,150.686829 294.741272,137.531860 294.702484,124.377838 
	C294.695129,121.887535 295.306671,119.984581 298.202026,120.056175 
	C305.330658,120.232445 312.489655,119.209152 319.892273,120.865067 
z"/>
<path fill="currentColor" opacity="1.000000" stroke="none" 
	d="
M235.153595,187.091919 
	C237.309402,179.046326 242.516205,177.617020 249.915314,177.909439 
	C265.293518,178.517197 265.308777,178.120102 265.296631,193.633163 
	C265.290375,201.622986 265.132507,209.616913 265.346100,217.600876 
	C265.451477,221.539413 263.851837,223.019302 260.094849,222.937744 
	C255.436462,222.836609 250.767090,222.769394 246.115295,222.976151 
	C241.720047,223.171494 239.466415,221.643753 240.007706,216.947205 
	C240.195343,215.319138 240.037552,213.651276 240.037552,210.790527 
	C237.574661,212.790100 235.902695,214.188278 234.188782,215.532990 
	C205.034088,238.407318 158.641006,220.252686 152.636856,183.697250 
	C152.010345,179.882767 152.720947,178.003723 156.923599,178.098251 
	C162.746185,178.229218 168.574173,178.124512 174.399841,178.112915 
	C176.758026,178.108231 178.421188,178.791595 179.318893,181.350449 
	C183.370590,192.899734 191.578339,199.941406 203.629395,201.622284 
	C216.836914,203.464478 227.427399,198.556747 235.153595,187.091919 
z"/>
<path fill="currentColor" opacity="1.000000" stroke="none" 
	d="
M491.275940,123.269135 
	C491.268311,128.895416 491.217621,134.052612 491.262329,139.208984 
	C491.284943,141.812393 490.197266,142.758835 487.576721,142.427582 
	C484.632202,142.055374 481.768280,141.173386 478.684601,141.635971 
	C466.605530,143.447891 458.881317,150.303055 456.297699,162.558701 
	C455.368042,166.968643 453.649292,168.759521 449.054443,168.391235 
	C444.094879,167.993713 439.078308,168.191284 434.090546,168.303848 
	C430.966919,168.374344 429.575134,167.225464 429.598541,163.954010 
	C429.692657,150.812912 429.714050,137.669846 429.577728,124.529427 
	C429.540070,120.900505 431.238983,119.923248 434.445862,119.986031 
	C438.935272,120.073914 443.441162,120.184044 447.916260,119.904549 
	C452.748230,119.602760 456.413086,120.238808 455.396362,126.408928 
	C457.682556,126.935158 458.609741,125.230164 459.788666,124.275116 
	C468.041870,117.589218 477.582977,116.643181 487.631409,117.844757 
	C490.576569,118.196938 491.437683,120.134430 491.275940,123.269135 
z"/>
<path fill="currentColor" opacity="1.000000" stroke="none" 
	d="
M429.622864,192.009048 
	C429.623016,178.131378 429.623108,178.067581 443.060516,178.089462 
	C457.646088,178.113190 455.096832,176.982880 455.281769,190.260925 
	C455.406799,199.237320 455.113953,208.222260 455.370941,217.192978 
	C455.498352,221.641098 453.670288,223.114532 449.509277,222.969376 
	C444.527100,222.795578 439.532349,222.808868 434.547852,222.934052 
	C430.971893,223.023895 429.503815,221.658936 429.585266,217.943771 
	C429.771149,209.468582 429.630920,200.986237 429.622864,192.009048 
z"/>
</svg>